<?xml version="1.0" standalone="no"?>
<!DOCTYPE svg PUBLIC "-//W3C//DTD SVG 20010904//EN"
 "http://www.w3.org/TR/2001/REC-SVG-20010904/DTD/svg10.dtd">
<svg version="1.0" xmlns="http://www.w3.org/2000/svg"
 width="500.000000pt" height="500.000000pt" viewBox="0 0 500.000000 500.000000"
 preserveAspectRatio="xMidYMid meet">
<metadata>
Created by potrace 1.11, written by Peter Selinger 2001-2013
</metadata>
<g transform="translate(0.000000,500.000000) scale(0.100000,-0.100000)"
fill="#000000" stroke="none">
<path d="M2309 4946 c-2 -2 -35 -6 -74 -10 -271 -26 -537 -101 -800 -226 -718
-341 -1244 -1041 -1364 -1815 -6 -38 -13 -86 -17 -105 -13 -77 -12 -514 1
-590 14 -77 21 -122 31 -200 18 -151 105 -414 198 -599 199 -394 535 -757 921
-993 81 -49 334 -178 350 -178 4 0 34 -11 68 -24 68 -27 247 -84 287 -91 14
-3 48 -9 75 -15 82 -17 98 -20 145 -26 25 -3 56 -8 70 -11 47 -10 455 -12 520
-3 36 6 81 12 100 14 83 11 122 19 235 46 505 121 967 410 1312 821 144 172
269 378 384 634 46 103 133 399 143 486 4 30 9 65 12 79 53 275 32 686 -50
985 -10 33 -18 65 -20 70 -13 53 -98 281 -121 325 -7 14 -28 54 -46 90 -171
342 -444 658 -764 886 -263 188 -596 336 -900 399 -81 17 -94 19 -175 30 -25
4 -56 9 -70 12 -30 6 -445 15 -451 9z"/>
</g>
</svg>
